<svg xmlns="http://www.w3.org/2000/svg" viewBox="0 0 120 120" width="120" height="120">
  <defs>
    <linearGradient id="starMain" x1="30%" y1="10%" x2="70%" y2="90%">
      <stop offset="0%" stop-color="#FFD96A"/>
      <stop offset="40%" stop-color="#FFBF33"/>
      <stop offset="100%" stop-color="#F5A623"/>
    </linearGradient>
    <linearGradient id="starHighlight" x1="30%" y1="0%" x2="50%" y2="60%">
      <stop offset="0%" stop-color="#FFF4CC" stop-opacity="0.9"/>
      <stop offset="100%" stop-color="#FFD96A" stop-opacity="0"/>
    </linearGradient>
    <radialGradient id="starGlow" cx="50%" cy="45%" r="50%">
      <stop offset="0%" stop-color="#FFD96A" stop-opacity="0.4"/>
      <stop offset="100%" stop-color="#FFD96A" stop-opacity="0"/>
    </radialGradient>
    <filter id="starShadow" x="-20%" y="-20%" width="140%" height="140%">
      <feDropShadow dx="0" dy="3" stdDeviation="4" flood-color="#F5A623" flood-opacity="0.3"/>
    </filter>
  </defs>
  <circle cx="60" cy="55" r="48" fill="url(#starGlow)"/>
  <g filter="url(#starShadow)" transform="translate(60,56)">
    <path d="M0,-42 L9.8,-13.2 L40.2,-13.2 L16.2,5.8 L22.8,34.8 L0,18 L-22.8,34.8 L-16.2,5.8 L-40.2,-13.2 L-9.8,-13.2 Z" fill="url(#starMain)"/>
    <path d="M0,-42 L9.8,-13.2 L40.2,-13.2 L16.2,5.8" fill="url(#starHighlight)" opacity="0.5"/>
    <path d="M0,-42 L0,18" stroke="#E8960E" stroke-width="0.8" opacity="0.3"/>
    <path d="M-40.2,-13.2 L22.8,34.8" stroke="#E8960E" stroke-width="0.6" opacity="0.2"/>
    <path d="M40.2,-13.2 L-22.8,34.8" stroke="#E8960E" stroke-width="0.6" opacity="0.2"/>
  </g>
  <circle cx="38" cy="32" r="3" fill="white" opacity="0.7"/>
  <circle cx="82" cy="40" r="1.5" fill="#FFD96A" opacity="0.6"/>
  <circle cx="30" cy="75" r="1.5" fill="#FFD96A" opacity="0.5"/>
</svg>
